<?xml version="1.0" encoding="UTF-8" standalone="no"?>
<!-- Created with Inkscape (http://www.inkscape.org/) -->

<svg
   xmlns:dc="http://purl.org/dc/elements/1.1/"
   xmlns:cc="http://creativecommons.org/ns#"
   xmlns:rdf="http://www.w3.org/1999/02/22-rdf-syntax-ns#"
   xmlns:svg="http://www.w3.org/2000/svg"
   xmlns="http://www.w3.org/2000/svg"
   xmlns:sodipodi="http://sodipodi.sourceforge.net/DTD/sodipodi-0.dtd"
   xmlns:inkscape="http://www.inkscape.org/namespaces/inkscape"
   width="440"
   height="440"
   id="svg2"
   version="1.1"
   inkscape:version="0.48.2 r9819"
   sodipodi:docname="pblk_logo.svg">
  <defs
     id="defs4" />
  <sodipodi:namedview
     id="base"
     pagecolor="#ffffff"
     bordercolor="#666666"
     borderopacity="1.0"
     inkscape:pageopacity="0.0"
     inkscape:pageshadow="2"
     inkscape:zoom="0.98994949"
     inkscape:cx="353.26058"
     inkscape:cy="171.82249"
     inkscape:document-units="px"
     inkscape:current-layer="layer1"
     showgrid="true"
     fit-margin-top="0"
     fit-margin-left="0"
     fit-margin-right="0"
     fit-margin-bottom="0"
     inkscape:window-width="1600"
     inkscape:window-height="829"
     inkscape:window-x="-4"
     inkscape:window-y="-4"
     inkscape:window-maximized="1">
    <inkscape:grid
       type="xygrid"
       id="grid2987"
       empspacing="5"
       visible="true"
       enabled="true"
       snapvisiblegridlinesonly="true" />
  </sodipodi:namedview>
  <metadata
     id="metadata7">
    <rdf:RDF>
      <cc:Work
         rdf:about="">
        <dc:format>image/svg+xml</dc:format>
        <dc:type
           rdf:resource="http://purl.org/dc/dcmitype/StillImage" />
        <dc:title></dc:title>
      </cc:Work>
    </rdf:RDF>
  </metadata>
  <g
     inkscape:label="Layer 1"
     inkscape:groupmode="layer"
     id="layer1"
     transform="translate(-21.739416,-2.3621826)">
    <path
       style="fill:#550000;fill-opacity:1;fill-rule:nonzero;stroke:none"
       d="M 220 0 C 98.497355 2.4424907e-014 3.0034982e-017 98.497355 0 220 C 0 255.95681 8.6105518 289.9042 23.90625 319.875 C 24.295416 318.07707 24.714711 316.26574 25.15625 314.4375 C 26.377562 309.3805 27.69754 304.46158 29.09375 299.65625 C 32.383235 288.4647 36.342061 276.786 41 264.65625 L 39.71875 245.21875 C 39.337779 238.56 39.210177 232.04121 39.34375 225.6875 C 39.477296 219.33394 40.302397 212.53373 41.8125 205.28125 C 43.322571 198.02897 45.30358 192.06738 47.75 187.375 C 50.196376 182.68285 53.475423 178.67884 57.5625 175.375 C 61.649515 172.07142 66.910337 169.76463 73.375 168.4375 C 78.183996 167.45048 82.80457 167.18202 87.25 167.625 C 91.69531 168.06825 95.81019 169.41799 99.5625 171.6875 C 103.31467 173.95728 106.55247 177.19787 109.3125 181.4375 C 112.07236 185.67736 114.15562 191.14273 115.53125 197.84375 C 117.05236 205.25451 117.4377 211.21683 116.71875 215.71875 C 115.63201 222.43243 113.68105 228.47135 110.875 233.8125 C 108.06878 239.15379 104.50275 244.33382 100.15625 249.375 C 95.80961 254.41629 90.41668 259.23386 83.96875 263.84375 L 85.1875 266.1875 C 93.14996 264.55306 100.24887 262.29495 106.46875 259.375 C 112.68846 256.45512 118.16614 253.08534 122.9375 249.3125 C 125.76883 247.07366 128.40755 244.73406 130.8125 242.25 C 130.56483 239.76959 130.31559 237.47973 130.0625 234.78125 C 128.58067 219.55751 127.81753 208.32278 127.8125 201.09375 C 126.91992 193.14337 126.10315 184.32828 125.34375 174.625 C 124.80096 167.17795 124.44848 157.80031 124.3125 146.53125 C 124.17653 135.2625 124.78618 124.71507 126.09375 114.875 C 127.40134 105.03529 129.25773 96.131662 131.6875 88.15625 C 134.11728 80.181261 137.18435 73.532955 140.90625 68.25 C 144.62814 62.967509 149.17032 59.788179 154.53125 58.6875 C 160.52282 57.457841 165.54647 57.507399 169.59375 58.8125 C 173.64096 60.118084 176.9964 62.302821 179.6875 65.40625 C 182.37851 68.510148 184.55453 72.36823 186.15625 76.96875 C 187.75786 81.569717 189.08701 86.545558 190.1875 91.90625 C 191.72482 99.395952 191.91417 107.43193 190.75 115.96875 C 189.58571 124.50595 187.58601 133.18589 184.71875 142.03125 C 181.85138 150.87693 178.41064 159.66591 174.40625 168.375 C 170.40178 177.08436 166.3305 185.35368 162.1875 193.1875 L 164.34375 194.09375 C 167.62577 187.66903 170.74057 182.38444 173.71875 178.28125 C 176.69684 174.17831 179.99846 171.77579 183.625 171.03125 C 188.27632 170.07659 192.64019 170.25729 196.6875 171.5625 C 200.73468 172.86797 204.37503 174.9405 207.59375 177.8125 C 210.81231 180.68475 213.5347 184.20411 215.78125 188.34375 C 218.02763 192.48361 219.63775 196.94106 220.625 201.75 C 221.45024 205.77078 222.07893 209.62953 222.5 213.28125 C 222.92088 216.93314 223.06123 220.55701 222.9375 224.15625 C 222.81358 227.75565 222.38752 231.3732 221.625 235.0625 C 220.86229 238.75193 219.65185 242.66933 218.03125 246.78125 L 225.6875 240.15625 C 228.28071 237.98081 230.83816 235.65526 233.40625 233.15625 C 235.97414 230.65738 238.54399 227.94071 241.0625 225 C 241.80597 224.13186 242.53882 223.19312 243.28125 222.25 C 242.46084 217.13151 241.80045 211.69788 241.34375 205.90625 C 240.67752 197.45752 240.45039 188.65558 240.625 179.5 C 240.79962 170.34467 241.34262 161.07567 242.25 151.6875 C 243.15739 142.29962 244.48744 133.19932 246.25 124.375 C 248.01256 115.55103 250.17769 107.19392 252.75 99.3125 C 255.3223 91.431479 258.25504 84.39911 261.59375 78.25 C 264.93244 72.101333 268.71213 67.045692 272.90625 63.0625 C 277.10032 59.079782 281.68949 56.582268 286.65625 55.5625 C 287.92748 55.301642 289.13193 55.166855 290.28125 55.15625 C 292.19678 55.138575 293.95435 55.447531 295.53125 56.125 C 298.0542 57.20944 300.18945 58.892639 301.96875 61.15625 C 303.74793 63.42034 305.23835 66.10003 306.40625 69.1875 C 307.57404 72.275431 308.47651 75.470327 309.15625 78.78125 C 310.67738 86.192128 311.39835 93.934429 311.28125 101.96875 C 311.16403 110.00347 310.43971 118.17532 309.15625 126.53125 C 307.87266 134.88752 306.15075 143.35603 303.96875 151.9375 L 296.9375 177.6875 L 289.15625 202.9375 L 282.0625 227.0625 C 281.83011 227.93185 281.61214 229.05592 281.4375 230.40625 C 281.26279 231.75671 281.12601 233.17942 281.03125 234.71875 C 280.93645 236.25821 280.86681 237.91982 280.8125 239.65625 C 280.7581 241.3928 280.75655 243.06227 280.84375 244.6875 L 281.1875 246.34375 C 281.60822 248.39356 282.23238 250.34505 283.0625 252.1875 C 283.89255 254.03004 284.8037 255.65469 285.75 257.0625 C 286.69622 258.47039 287.60432 259.55156 288.5 260.3125 C 289.39559 261.07351 290.15051 261.3795 290.78125 261.25 C 292.27911 260.94256 293.94792 260.27722 295.75 259.25 C 297.55199 258.22287 299.4254 256.94687 301.375 255.4375 C 303.32449 253.92822 305.30937 252.25524 307.3125 250.40625 C 309.3155 248.55735 311.22513 246.6998 313.0625 244.84375 C 313.9108 243.98682 314.76641 243.08837 315.625 242.1875 C 314.9381 237.53227 314.24416 232.68644 313.5625 227.53125 C 312.37261 218.53273 311.33245 209.07174 310.40625 199.15625 C 309.48005 189.24095 308.81682 179.54642 308.4375 170.09375 C 308.32586 166.74829 308.23575 162.69635 308.15625 157.90625 C 308.07675 153.11642 308.15841 147.95549 308.375 142.40625 C 308.59155 136.85733 308.99318 131.01746 309.59375 124.9375 C 310.19432 118.85789 311.09535 112.8779 312.3125 107 C 313.52966 101.12248 315.08638 95.455608 317 89.96875 C 318.91362 84.482313 321.3135 79.535549 324.1875 75.125 C 327.06147 70.714901 330.44464 66.987639 334.34375 63.96875 C 338.24281 60.950334 342.75058 58.927132 347.875 57.875 C 351.89564 57.049915 355.35008 57.014726 358.21875 57.78125 C 361.08734 58.548264 363.51648 59.92762 365.53125 61.9375 C 367.54591 63.947857 369.20575 66.522386 370.5 69.625 C 371.79414 72.728075 372.84816 76.153555 373.625 79.9375 C 375.00049 86.638846 375.609 94.051262 375.5 102.125 C 375.39087 110.19914 374.85129 118.38822 373.84375 126.6875 C 372.83609 134.98713 371.53831 143.0997 369.96875 151.0625 C 368.39906 159.02561 366.81185 166.25478 365.1875 172.75 C 363.56304 179.24547 362.06955 184.74506 360.6875 189.21875 L 358.0625 198.125 L 348.3125 222.0625 L 351.53125 223.25 L 358.40625 209.375 L 365.78125 194.9375 L 373.1875 180.59375 C 375.6247 175.657 377.52476 172.49 378.875 171.0625 C 380.96285 168.82655 383.67185 166.73159 386.96875 164.78125 C 390.26549 162.83119 394.07015 161.39019 398.40625 160.5 C 400.6136 160.04701 402.84169 160.13793 405.0625 160.75 C 407.28312 161.36236 409.33236 162.44678 411.21875 164.03125 C 413.10494 165.61599 414.73873 167.6852 416.15625 170.1875 C 417.57357 172.69007 418.63271 175.59522 419.3125 178.90625 C 419.97589 182.13868 419.69107 186.19455 418.4375 191.09375 C 417.18371 195.99317 415.71656 200.32846 414.03125 204.125 C 412.34572 207.92172 410.45451 211.77879 408.375 215.65625 C 406.2953 219.53389 404.42724 223.38277 402.75 227.21875 C 401.07258 231.05487 399.77197 234.80276 398.875 238.4375 C 397.97786 242.07237 397.88273 245.53266 398.5625 248.84375 C 399.14499 251.68193 400.24444 253.56127 401.875 254.5 C 403.50539 255.43881 405.77044 255.63006 408.6875 255.03125 C 410.26414 254.70764 411.8657 253.81964 413.5 252.375 C 415.13409 250.93045 416.76 249.13903 418.375 247 C 419.98979 244.86107 421.58274 242.51007 423.15625 239.96875 C 424.72954 237.42756 426.24843 234.84589 427.6875 232.25 L 431.59375 224.9375 C 432.82845 222.54798 433.9822 220.50675 435.03125 218.8125 L 439.8125 228.90625 C 439.93026 225.95031 440 222.98483 440 220 C 440 98.497355 341.50264 -4.8819778e-014 220 0 z M 159.09375 81.5 C 158.78206 81.50747 158.46005 81.556277 158.125 81.625 C 156.54824 81.948876 155.14 83.405434 153.90625 86 C 152.67244 88.594995 151.62069 91.96178 150.75 96.125 C 149.87928 100.28863 149.1741 105.0454 148.625 110.375 C 148.07586 115.70498 147.62317 121.2448 147.25 127.03125 C 146.87679 132.81806 146.60437 138.68189 146.46875 144.625 C 146.33309 150.56842 146.27049 156.19669 146.25 161.5 C 146.2295 166.80358 146.2433 171.6287 146.3125 175.96875 L 146.53125 186.65625 C 147.81832 182.11991 149.33586 177.35527 151.03125 172.40625 L 156.21875 156.9375 L 161 140.65625 C 162.58206 135.15566 163.89321 129.57792 164.90625 123.90625 C 165.91923 118.23493 166.5726 112.55872 166.84375 106.875 C 167.11483 101.19168 166.84848 95.522286 166.09375 89.84375 C 166.02895 89.528613 165.8286 88.875816 165.5 87.875 C 165.17133 86.874609 164.69138 85.858675 164.03125 84.84375 C 163.37105 83.829257 162.5601 82.955594 161.59375 82.25 C 160.86894 81.721132 160.02881 81.477591 159.09375 81.5 z M 348.03125 85.625 C 347.84208 85.622732 347.64444 85.645047 347.4375 85.6875 C 344.91469 86.205568 342.89581 87.457518 341.40625 89.40625 C 339.91663 91.355403 338.67361 93.938992 337.65625 97.1875 C 336.63883 100.43641 335.78152 104.31068 335.0625 108.8125 L 332.34375 123.90625 C 332.00477 128.65905 331.82712 133.56639 331.75 138.59375 C 331.6728 143.62142 331.66935 148.58376 331.78125 153.53125 C 331.89309 158.47904 332.0903 163.36746 332.375 168.15625 C 332.65966 172.94531 333.00649 177.4285 333.375 181.625 C 334.18292 191.56478 335.18999 201.28537 336.40625 210.8125 L 338.59375 192.75 L 340.90625 173.3125 L 343.125 155.34375 L 344.8125 140.8125 C 345.0083 138.96497 345.35288 136.65591 345.84375 133.84375 L 347.4375 124.75 L 349.0625 114.6875 C 349.58152 111.21263 350.0357 107.88578 350.40625 104.6875 C 350.77672 101.48962 350.99705 98.512535 351.09375 95.78125 C 351.19035 93.050378 351.05962 90.782207 350.6875 88.96875 C 350.23434 86.761505 349.35542 85.640879 348.03125 85.625 z M 284 87.65625 C 281.7137 88.125767 279.53414 90.09545 277.5 93.59375 C 275.46579 97.092463 273.66781 101.63126 272.0625 107.21875 C 270.45715 112.80662 269.1227 119.21172 268.09375 126.40625 C 267.06475 133.60112 266.401 141.16843 266.0625 149.125 C 265.72396 157.08187 265.80488 165.17788 266.34375 173.40625 C 266.88258 181.63487 267.94642 189.52552 269.5 197.09375 C 271.753 190.05868 274.04325 182.20104 276.40625 173.5 C 278.76918 164.79921 280.88645 155.89759 282.71875 146.8125 C 284.55098 137.72773 285.91815 128.75775 286.8125 119.90625 C 287.70678 111.05511 287.76307 102.97625 287 95.65625 C 286.53065 93.370188 286.07497 91.43584 285.625 89.84375 C 285.17496 88.252081 284.63066 87.527 284 87.65625 z M 81.1875 189.875 C 80.589838 189.90267 79.96289 189.99152 79.3125 190.125 C 76.395487 190.72388 74.000634 192.05583 72.125 194.125 C 70.249273 196.19438 68.76846 198.78407 67.71875 201.875 C 66.668956 204.96614 66.029309 208.50554 65.78125 212.5 L 64.875 227.21875 C 64.526049 233.12371 64.688007 238.47138 65.375 243.21875 C 66.061915 247.96623 66.888917 252.66117 67.84375 257.3125 C 72.088428 253.97646 75.629897 250.50406 78.5 246.875 C 81.21232 243.27841 83.5006 239.54781 85.34375 235.71875 C 86.33621 235.35076 88.03089 231.2321 90.4375 223.34375 C 91.79296 216.73936 92.48515 211.75305 92.53125 208.375 C 92.56935 206.55977 92.3904 204.49004 92 202.1875 C 91.998 201.77723 91.95589 201.36303 91.875 200.96875 C 91.48655 199.07677 90.84532 197.33998 89.9375 195.71875 C 88.96483 193.78237 87.60156 192.22171 85.84375 191.0625 C 84.52531 190.19326 82.980488 189.79198 81.1875 189.875 z M 181.03125 199.96875 C 179.71753 200.02275 178.2873 200.21573 176.75 200.53125 C 173.99066 201.09775 171.33709 202.22807 168.8125 203.9375 C 166.28782 205.64714 164.09024 207.95383 162.21875 210.84375 C 160.34719 213.73385 158.91144 217.24996 157.875 221.40625 C 156.25057 227.90167 155.67185 232.26139 156.125 234.46875 C 156.23826 235.02067 156.40257 235.43583 156.625 235.71875 C 156.6573 235.87649 157.02294 240.73582 157.75 250.28125 C 158.00518 253.92605 158.24891 257.14477 158.5 259.96875 C 158.83194 263.18699 159.17008 266.22345 159.5 269.03125 C 162.26341 269.28562 165.00382 269.41971 167.71875 269.4375 C 169.02865 269.4151 170.34723 269.24389 171.6875 268.96875 C 172.71233 268.7584 173.81852 268.46295 174.96875 268.0625 C 177.41056 267.1505 179.77618 266.46934 182.0625 266 C 184.7429 265.44981 187.02242 264.1549 188.90625 262.125 C 190.78996 260.09518 192.30766 257.59086 193.5 254.59375 C 194.69222 251.59674 195.59066 248.27396 196.15625 244.625 C 196.72171 240.97615 197.02657 237.23405 197.0625 233.40625 C 197.0983 229.57857 196.93582 225.82432 196.59375 222.15625 C 196.25154 218.48835 195.77114 215.15213 195.15625 212.15625 C 194.75162 210.18542 194.1414 208.37242 193.34375 206.6875 C 192.54597 205.00277 191.44943 203.60567 190.03125 202.5 C 188.61295 201.39453 186.80521 200.63397 184.625 200.21875 C 183.53485 200.01124 182.34497 199.91475 181.03125 199.96875 z M 383.84375 201 C 383.7109 201.01108 383.57545 201.03419 383.4375 201.0625 C 382.0972 201.33771 380.55376 202.5475 378.78125 204.71875 C 376.94596 206.98521 375.22625 210.49123 373.65625 215.25 L 351.40625 283.40625 C 350.14526 286.86929 348.72687 289.44398 347.09375 291.09375 C 345.46055 292.74354 343.3665 293.8259 340.84375 294.34375 C 337.45374 295.03962 334.61404 294.83517 332.34375 293.78125 C 330.07343 292.72735 328.19088 291.08549 326.65625 288.8125 C 325.1216 286.53953 323.88501 283.7776 322.9375 280.5625 C 322.19737 278.05117 321.50106 275.40421 320.875 272.59375 L 314.84375 277.53125 C 311.95122 279.85034 309.00458 281.95013 306.03125 283.875 C 303.05781 285.79991 300.10834 287.46367 297.1875 288.84375 C 294.26655 290.22384 291.46166 291.19979 288.78125 291.75 C 284.52402 292.62389 280.18457 291.55475 275.75 288.5625 C 271.31537 285.57027 267.10823 281.18615 263.09375 275.4375 C 259.07923 269.68889 255.43211 262.81426 252.1875 254.8125 C 251.15545 252.26733 250.2062 249.66086 249.3125 247 C 246.07724 250.19294 242.71281 253.14049 239.1875 255.8125 C 235.09931 258.91107 230.75979 261.75562 226.15625 264.34375 C 221.55251 266.93195 216.60332 269.41833 211.34375 271.8125 C 210.27856 273.42786 208.738 275.15116 206.6875 276.96875 C 204.63685 278.7864 202.55964 280.4895 200.5 282.0625 C 198.15725 283.85794 195.62799 285.64002 192.875 287.4375 L 189.90625 288.03125 C 177.60765 290.5558 170.90207 291.79248 169.8125 291.6875 C 159.81801 291.02785 153.47014 290.18374 150.71875 289.1875 C 145.62626 287.19298 140.65323 285.09196 135.84375 282.875 C 135.21603 279.11545 134.6135 275.01418 134.03125 270.65625 C 130.21898 273.69817 126.11117 276.33009 121.6875 278.59375 C 117.26363 280.85747 112.75995 282.46765 108.1875 283.40625 C 107.63556 283.51954 106.89949 283.60468 106 283.625 L 101.59375 283.65625 C 99.46301 283.68285 96.39857 283.76021 92.4375 283.875 C 88.4763 283.98978 83.143845 284.22787 76.40625 284.625 L 76.84375 286.75 C 79.788986 301.09831 81.25131 314.39289 81.25 326.59375 C 81.249 338.79457 80.102667 349.428 77.78125 358.53125 C 75.589177 367.12679 72.501689 374.12408 68.5625 379.5625 C 108.00807 417.01227 161.31475 440 220 440 C 326.52408 440 415.37085 364.29539 435.65625 263.75 C 433.95112 265.423 432.13725 267.01485 430.25 268.53125 C 426.33566 271.67628 422.18175 274.33825 417.75 276.5625 C 413.31803 278.78679 408.92968 280.35996 404.59375 281.25 C 398.91741 282.41518 394.1202 282.67459 390.25 282.03125 C 386.37965 281.38795 383.20649 280.14678 380.6875 278.28125 C 378.16837 276.41576 376.24582 274.09883 374.90625 271.375 C 373.56657 268.65122 372.56858 265.76217 371.9375 262.6875 C 371.56524 260.87429 371.32722 258.60508 371.21875 255.875 C 371.11017 253.145 371.33265 249.99953 371.875 246.4375 C 372.41723 242.87558 373.35975 238.87195 374.75 234.4375 C 376.14013 230.00319 378.14088 225.1446 380.75 219.84375 L 383.875 215.25 L 386.34375 211.53125 C 387.01668 210.40728 387.50123 209.4168 387.8125 208.53125 C 388.12361 207.64587 388.17793 206.77355 388 205.90625 C 387.66008 204.25077 387.08283 202.9661 386.28125 202.0625 C 385.57975 201.27202 384.77368 200.92247 383.84375 201 z M 49.875 292.90625 C 48.911113 295.81535 48.090084 299.12305 47.375 302.84375 C 46.659873 306.56444 46.032022 310.41073 45.53125 314.375 C 45.030438 318.33924 44.639263 322.30302 44.375 326.21875 C 44.1107 330.13443 43.937274 333.74709 43.84375 337.09375 C 43.75019 340.44034 43.737437 343.33526 43.78125 345.75 C 43.82503 348.16464 43.945854 349.88132 44.15625 350.90625 C 44.26189 351.42092 44.56725 352.24539 44.96875 353.25 C 47.180481 356.15083 49.462399 358.99621 51.8125 361.78125 C 52.752757 362.16801 53.748048 362.2497 54.8125 362.03125 C 56.152696 361.75608 57.119647 360.79269 57.6875 359.15625 C 58.255289 357.5197 58.57478 355.43217 58.625 352.875 C 58.67515 350.31772 58.488341 347.46689 58.09375 344.34375 C 57.699095 341.22053 57.255795 338.01464 56.75 334.75 C 56.244144 331.48529 55.685436 328.3327 55.09375 325.25 C 54.502006 322.16725 54.031469 319.38253 53.6875 316.90625 C 53.050106 312.60049 52.488655 308.96439 51.96875 306.03125 L 50.78125 298.53125 C 50.406941 296.30764 50.103614 294.42034 49.875 292.90625 z "
       id="path2989"
       transform="translate(21.739416,2.3621826)" />
    <g
       style="font-size:247.23658752px;font-style:normal;font-variant:normal;font-weight:normal;font-stretch:normal;line-height:0%;letter-spacing:0px;word-spacing:0px;fill:#ffffff;fill-opacity:1;stroke:none;font-family:Pacifico;-inkscape-font-specification:Pacifico"
       id="text2991" />
  </g>
</svg>
